<svg xmlns="http://www.w3.org/2000/svg" fill-rule="evenodd" clip-rule="evenodd" image-rendering="optimizeQuality" shape-rendering="geometricPrecision" text-rendering="geometricPrecision" viewBox="0 0 747 747">
  <defs>
    <radialGradient id="a" cx="373.5" cy="373.5" r="1758" fx="373.5" fy="373.5" gradientUnits="userSpaceOnUse">
      <stop offset="0" stop-color="#fc0"/>
      <stop offset=".3" stop-color="#f75d18"/>
      <stop offset=".5" stop-color="#f60"/>
      <stop offset="1" stop-color="#fc0"/>
    </radialGradient>
  </defs>
  <path fill="url(#a)" d="M97 122c71 5 143 3 164 82 8 28 11 58 15 86-17-10-37-23-49-38-7-9-12-17-15-28-2-10-3-19-10-28-8-9-25-15-36-19 44 94 83 127 169 151-75-103-72-222 21-328 46 54 99 104 58 175-14 24-33 48-51 71-5-20-9-43-7-63 1-11 4-20 9-29s12-16 13-27c1-13-7-29-12-40-35 98-31 149 12 227 20-126 107-208 247-217-5 71-3 143-82 164-28 8-58 11-86 15 10-17 23-37 38-49 9-7 17-12 28-15 10-2 19-3 28-10 9-8 15-25 19-36-94 44-127 83-151 169 103-75 222-72 328 21-54 46-104 99-175 58-24-14-48-33-71-51 20-5 43-9 63-7 11 1 20 4 29 9s16 12 27 13c13 1 29-7 40-12-98-35-149-31-227 12 126 20 208 107 217 247-71-5-143-3-164-82-8-28-11-58-15-86 17 10 37 23 49 38 7 9 12 17 15 28 2 10 3 19 10 28 8 9 25 15 36 19-44-94-83-127-169-151 75 103 72 222-21 328-46-54-99-104-58-175 14-24 33-48 51-71 5 20 9 43 7 63-1 11-4 20-9 29s-12 16-13 27c-1 13 7 29 12 40 35-98 31-149-12-227-20 126-107 208-247 217 5-71 3-143 82-164 28-8 58-11 86-15-10 17-23 37-38 49-9 7-17 12-28 15-10 2-19 3-28 10-9 8-15 25-19 36 94-44 127-83 151-169-103 75-222 72-328-21 54-46 104-99 175-58 24 14 48 33 71 51-20 5-43 9-63 7-11-1-20-4-29-9s-16-12-27-13c-13-1-29 7-40 12 98 35 149 31 227-12-126-20-208-107-217-247z"/>
</svg>
